<svg width="26" height="24" viewBox="0 0 26 24" fill="none" xmlns="http://www.w3.org/2000/svg">
<path d="M1.14648 11.1965L13.6906 0.309179C13.7869 0.226172 13.9098 0.179688 14.0393 0.179688H16.9777C17.2234 0.179688 17.3363 0.485156 17.1504 0.644531L5.52266 10.7383H24.9531C25.0992 10.7383 25.2188 10.8578 25.2188 11.0039V12.9961C25.2188 13.1422 25.0992 13.2617 24.9531 13.2617H5.52598L17.1537 23.3555C17.3396 23.5182 17.2268 23.8203 16.9811 23.8203H13.943C13.8799 23.8203 13.8168 23.7971 13.7703 23.7539L1.14648 12.8035C1.03154 12.7036 0.939377 12.5801 0.876221 12.4415C0.813065 12.3029 0.780382 12.1523 0.780382 12C0.780382 11.8477 0.813065 11.6971 0.876221 11.5585C0.939377 11.4199 1.03154 11.2964 1.14648 11.1965Z" fill="black"/>
</svg>
