<svg width="26" height="24" viewBox="0 0 26 24" fill="none" xmlns="http://www.w3.org/2000/svg">
<path d="M24.8535 11.1965L12.3094 0.309179C12.2131 0.226172 12.0902 0.179688 11.9607 0.179688H9.02227C8.77656 0.179688 8.66367 0.485156 8.84961 0.644531L20.4773 10.7383H1.04688C0.900781 10.7383 0.78125 10.8578 0.78125 11.0039V12.9961C0.78125 13.1422 0.900781 13.2617 1.04688 13.2617H20.474L8.84629 23.3555C8.66035 23.5182 8.77324 23.8203 9.01895 23.8203H12.057C12.1201 23.8203 12.1832 23.7971 12.2297 23.7539L24.8535 12.8035C24.9685 12.7036 25.0606 12.5801 25.1238 12.4415C25.1869 12.3029 25.2196 12.1523 25.2196 12C25.2196 11.8477 25.1869 11.6971 25.1238 11.5585C25.0606 11.4199 24.9685 11.2964 24.8535 11.1965Z" fill="black"/>
</svg>
