<svg width="21" height="15" viewBox="0 0 21 15" fill="none" xmlns="http://www.w3.org/2000/svg">
<path d="M19.96 2.62664C20.1974 2.37191 20.3266 2.03499 20.3205 1.68687C20.3143 1.33875 20.1733 1.0066 19.9271 0.760398C19.6809 0.5142 19.3488 0.373173 19.0006 0.367031C18.6525 0.360888 18.3156 0.49011 18.0609 0.72747L7.36461 11.4237L2.9392 6.9983C2.68447 6.76094 2.34755 6.63172 1.99943 6.63786C1.6513 6.64401 1.31916 6.78503 1.07296 7.03123C0.826759 7.27743 0.685734 7.60958 0.679592 7.9577C0.673449 8.30582 0.80267 8.64274 1.04003 8.89747L6.41503 14.2725C6.66698 14.5241 7.00852 14.6655 7.36461 14.6655C7.72071 14.6655 8.06224 14.5241 8.3142 14.2725L19.96 2.62664Z" fill="#12C50F"/>
</svg>
