<svg width="35" height="35" viewBox="0 0 35 35" fill="none" xmlns="http://www.w3.org/2000/svg">
<path fill-rule="evenodd" clip-rule="evenodd" d="M10.5085 0.643254C12.3169 0.560004 12.8935 0.541504 17.5 0.541504C22.1065 0.541504 22.6831 0.561546 24.4899 0.643254C26.2967 0.724962 27.5301 1.01325 28.6092 1.43105C29.7393 1.85809 30.7645 2.52563 31.6124 3.38896C32.4757 4.23534 33.1417 5.259 33.5672 6.39059C33.9866 7.46975 34.2733 8.70309 34.3566 10.5068C34.4398 12.3183 34.4583 12.8949 34.4583 17.4998C34.4583 22.1063 34.4383 22.6829 34.3566 24.4913C34.2749 26.295 33.9866 27.5284 33.5672 28.6075C33.1417 29.7393 32.4746 30.7646 31.6124 31.6122C30.7645 32.4756 29.7393 33.1416 28.6092 33.5671C27.5301 33.9864 26.2967 34.2732 24.493 34.3564C22.6831 34.4397 22.1065 34.4582 17.5 34.4582C12.8935 34.4582 12.3169 34.4381 10.5085 34.3564C8.70478 34.2747 7.47145 33.9864 6.39228 33.5671C5.26058 33.1415 4.23521 32.4744 3.38757 31.6122C2.52483 30.7654 1.85718 29.7405 1.4312 28.6091C1.01341 27.5299 0.726656 26.2966 0.643406 24.4928C0.560156 22.6814 0.541656 22.1048 0.541656 17.4998C0.541656 12.8933 0.561698 12.3168 0.643406 10.5099C0.725115 8.70309 1.01341 7.46975 1.4312 6.39059C1.85781 5.25913 2.52596 4.23428 3.38911 3.38742C4.23555 2.52486 5.25988 1.85723 6.39074 1.43105C7.46991 1.01325 8.70324 0.726504 10.507 0.643254H10.5085ZM24.3527 3.69575C22.5644 3.61405 22.0279 3.59709 17.5 3.59709C12.9721 3.59709 12.4356 3.61405 10.6473 3.69575C8.99307 3.7713 8.09582 4.04725 7.49766 4.28005C6.70678 4.58838 6.14099 4.95375 5.54745 5.5473C4.98481 6.09467 4.55181 6.76102 4.2802 7.4975C4.04741 8.09567 3.77145 8.99292 3.69591 10.6471C3.6142 12.4355 3.59724 12.972 3.59724 17.4998C3.59724 22.0277 3.6142 22.5642 3.69591 24.3525C3.77145 26.0068 4.04741 26.904 4.2802 27.5022C4.55153 28.2375 4.98474 28.9051 5.54745 29.4524C6.09474 30.0151 6.76228 30.4483 7.49766 30.7196C8.09582 30.9524 8.99307 31.2284 10.6473 31.3039C12.4356 31.3856 12.9706 31.4026 17.5 31.4026C22.0294 31.4026 22.5644 31.3856 24.3527 31.3039C26.0069 31.2284 26.9042 30.9524 27.5023 30.7196C28.2932 30.4113 28.859 30.0459 29.4525 29.4524C30.0152 28.9051 30.4484 28.2375 30.7198 27.5022C30.9526 26.904 31.2285 26.0068 31.3041 24.3525C31.3858 22.5642 31.4027 22.0277 31.4027 17.4998C31.4027 12.972 31.3858 12.4355 31.3041 10.6471C31.2285 8.99292 30.9526 8.09567 30.7198 7.4975C30.4114 6.70663 30.0461 6.14084 29.4525 5.5473C28.9051 4.9847 28.2388 4.5517 27.5023 4.28005C26.9042 4.04725 26.0069 3.7713 24.3527 3.69575ZM15.3339 22.7276C16.5436 23.2312 17.8906 23.2991 19.1448 22.9199C20.3991 22.5407 21.4827 21.7377 22.2107 20.6483C22.9387 19.5588 23.2659 18.2504 23.1364 16.9465C23.0069 15.6426 22.4287 14.4242 21.5006 13.4992C20.909 12.9079 20.1936 12.4552 19.406 12.1736C18.6184 11.892 17.7781 11.7885 16.9458 11.8706C16.1134 11.9527 15.3095 12.2184 14.5921 12.6484C13.8747 13.0785 13.2616 13.6622 12.7968 14.3577C12.3321 15.0531 12.0274 15.843 11.9045 16.6704C11.7817 17.4977 11.8438 18.342 12.0865 19.1425C12.3291 19.943 12.7462 20.6797 13.3078 21.2996C13.8693 21.9195 14.5613 22.4072 15.3339 22.7276ZM11.3364 11.3363C12.1458 10.5268 13.1067 9.88478 14.1643 9.44673C15.2218 9.00868 16.3553 8.78321 17.5 8.78321C18.6447 8.78321 19.7781 9.00867 20.8357 9.44673C21.8932 9.88478 22.8542 10.5268 23.6636 11.3363C24.473 12.1457 25.115 13.1066 25.5531 14.1641C25.9911 15.2217 26.2166 16.3552 26.2166 17.4998C26.2166 18.6445 25.9911 19.778 25.5531 20.8355C25.115 21.8931 24.473 22.854 23.6636 23.6634C22.0289 25.2981 19.8118 26.2165 17.5 26.2165C15.1882 26.2165 12.9711 25.2981 11.3364 23.6634C9.70172 22.0287 8.78337 19.8116 8.78337 17.4998C8.78337 15.188 9.70172 12.9709 11.3364 11.3363ZM28.1498 10.0813C28.3504 9.89213 28.511 9.66459 28.622 9.41221C28.7331 9.15983 28.7924 8.88773 28.7964 8.61202C28.8004 8.33631 28.7491 8.0626 28.6454 7.80709C28.5418 7.55157 28.3879 7.31946 28.1929 7.12448C27.9979 6.9295 27.7658 6.77563 27.5103 6.67197C27.2548 6.56831 26.9811 6.51697 26.7054 6.52099C26.4297 6.525 26.1576 6.5843 25.9052 6.69537C25.6528 6.80643 25.4253 6.96701 25.2361 7.16759C24.8681 7.55767 24.6666 8.07582 24.6744 8.61202C24.6823 9.14822 24.8987 9.66027 25.2779 10.0395C25.6571 10.4187 26.1692 10.6351 26.7054 10.643C27.2416 10.6508 27.7597 10.4493 28.1498 10.0813Z" fill="white" fill-opacity="0.6"/>
</svg>
