<svg width="24" height="30" class="w-8 h-8" fill="currentColor" viewBox="0 0 24 30" xmlns="http://www.w3.org/2000/svg">
  <path d="M12 0.732143C18.5389 0.732143 23.8393 6.0325 23.8393 12.5714C23.8393 17.5743 20.3239 23.0264 13.3843 28.9861C12.9984 29.3176 12.5064 29.4997 11.9977 29.4992C11.489 29.4988 10.9974 29.3159 10.6121 28.9837L10.1531 28.5854C3.52063 22.7811 0.160706 17.4626 0.160706 12.5714C0.160706 6.0325 5.46106 0.732143 12 0.732143ZM12 8.01786C10.7923 8.01786 9.63409 8.49761 8.78013 9.35157C7.92617 10.2055 7.44642 11.3637 7.44642 12.5714C7.44642 13.7791 7.92617 14.9373 8.78013 15.7913C9.63409 16.6453 10.7923 17.125 12 17.125C13.2077 17.125 14.3659 16.6453 15.2199 15.7913C16.0738 14.9373 16.5536 13.7791 16.5536 12.5714C16.5536 11.3637 16.0738 10.2055 15.2199 9.35157C14.3659 8.49761 13.2077 8.01786 12 8.01786Z" />
</svg>