<svg width="14" height="13" viewBox="0 0 14 13" fill="none" xmlns="http://www.w3.org/2000/svg">
<path d="M12.9773 4.43486L9.06931 3.8669L7.32234 0.325249C7.27462 0.228281 7.19613 0.149783 7.09916 0.102068C6.85597 -0.0179878 6.56045 0.0820588 6.43885 0.325249L4.69188 3.8669L0.783906 4.43486C0.676164 4.45025 0.577656 4.50104 0.502236 4.578C0.411058 4.67172 0.360815 4.7978 0.362546 4.92854C0.364278 5.05928 0.417843 5.18398 0.511472 5.27525L3.33894 8.03192L2.67094 11.9245C2.65527 12.0151 2.6653 12.1082 2.69986 12.1933C2.73443 12.2785 2.79217 12.3522 2.86652 12.4062C2.94087 12.4602 3.02887 12.4923 3.12053 12.4989C3.2122 12.5054 3.30386 12.4861 3.38512 12.4432L6.88059 10.6054L10.3761 12.4432C10.4715 12.494 10.5823 12.5109 10.6885 12.4925C10.9563 12.4463 11.1364 12.1923 11.0903 11.9245L10.4222 8.03192L13.2497 5.27525C13.3267 5.19983 13.3775 5.10132 13.3929 4.99358C13.4344 4.72422 13.2466 4.47488 12.9773 4.43486Z" fill="#FDDF42"/>
</svg>
