<svg width="32" height="27" viewBox="0 0 32 27" fill="none" xmlns="http://www.w3.org/2000/svg">
<path d="M31.5091 3.78842C30.361 4.29717 29.1276 4.64092 27.831 4.7963C29.1689 3.99576 30.1698 2.73581 30.647 1.25154C29.3901 1.99816 28.0144 2.52369 26.5798 2.80529C25.615 1.77523 24.3372 1.09249 22.9447 0.863072C21.5522 0.63365 20.1229 0.870383 18.8787 1.53652C17.6345 2.20265 16.6451 3.26092 16.064 4.54701C15.4829 5.83311 15.3426 7.27508 15.665 8.64904C13.1181 8.52116 10.6265 7.85918 8.35197 6.70604C6.07744 5.5529 4.0708 3.93439 2.46227 1.95554C1.91227 2.90429 1.59602 4.00429 1.59602 5.1758C1.5954 6.23041 1.85511 7.26888 2.3521 8.19905C2.84909 9.12923 3.56799 9.92235 4.44502 10.508C3.4279 10.4757 2.43322 10.2008 1.54377 9.70642V9.78892C1.54366 11.2681 2.05531 12.7017 2.99189 13.8465C3.92847 14.9914 5.2323 15.7769 6.68214 16.0699C5.73859 16.3253 4.74936 16.3629 3.78914 16.1799C4.1982 17.4526 4.99501 18.5656 6.06802 19.3629C7.14103 20.1603 8.43653 20.6022 9.77314 20.6267C7.50416 22.4079 4.70199 23.374 1.81739 23.3698C1.30642 23.3699 0.795871 23.3401 0.288391 23.2804C3.21642 25.163 6.62486 26.1622 10.1059 26.1583C21.8896 26.1583 28.3315 16.3985 28.3315 7.93404C28.3315 7.65904 28.3246 7.38129 28.3123 7.10629C29.5653 6.20013 30.6469 5.07803 31.5064 3.79254L31.5091 3.78842Z" fill="white" fill-opacity="0.6"/>
</svg>
